<?xml version="1.0" encoding="utf-8"?>
<!-- Generator: Adobe Illustrator 26.5.0, SVG Export Plug-In . SVG Version: 6.00 Build 0)  -->
<svg version="1.1" id="Layer_1" xmlns="http://www.w3.org/2000/svg" xmlns:xlink="http://www.w3.org/1999/xlink" x="0px" y="0px"
	 viewBox="0 0 104.8 122.9" style="enable-background:new 0 0 104.8 122.9;" xml:space="preserve">
<style type="text/css">
	.st0{fill-rule:evenodd;clip-rule:evenodd;fill:#333333;}
</style>
<path class="st0" d="M25.1,10.7h10.8c0.6-5.2,4.8-9.2,9.9-9.2c5.1,0,9.2,4,9.9,9.1l11,0.1c0.6,0,1.1,0.5,1.1,1.1V24
	c0,0.6-0.5,1.1-1.1,1.1H25.1c-0.6,0-1.1-0.5-1.1-1.1V11.8C24,11.2,24.5,10.7,25.1,10.7C25.1,10.7,25.1,10.7,25.1,10.7z M77.1,72.7
	c13.5,0,24.4,10.9,24.4,24.4c0,13.5-10.9,24.4-24.4,24.4c-13.5,0-24.4-10.9-24.4-24.4C52.7,83.6,63.7,72.7,77.1,72.7z M76,83.9
	c3.1,0,6.1,1.2,8.2,3.4c1.1,1.1,1.9,2.4,2.5,3.8c0.6,1.4,0.9,2.9,0.9,4.5c0,1.2-0.2,2.3-0.5,3.3c-0.3,0.9-0.6,1.7-1.1,2.5l3.5,3.9
	c0.3,0.3,0.3,0.9-0.1,1.2l-3.2,2.9c-0.3,0.3-0.9,0.3-1.2-0.1l-3.3-3.7c-0.8,0.5-1.6,0.8-2.5,1.1l0,0c-1.1,0.3-2.2,0.5-3.3,0.5
	c-1.5,0-3-0.3-4.5-0.9c-1.4-0.6-2.7-1.4-3.8-2.5c-1.1-1.1-1.9-2.4-2.5-3.8c-0.6-1.4-0.9-2.9-0.9-4.5c0-1.6,0.3-3.1,0.9-4.5
	c0.6-1.4,1.4-2.7,2.5-3.8c1.1-1.1,2.4-1.9,3.8-2.5C73,84.2,74.5,83.9,76,83.9L76,83.9z M81.2,90.4c-0.7-0.7-1.5-1.2-2.4-1.6l0,0
	c-0.9-0.4-1.8-0.5-2.7-0.5c-1,0-1.9,0.2-2.8,0.5c-0.9,0.4-1.7,0.9-2.4,1.6c-1.3,1.3-2.1,3.1-2.1,5.2c0,1,0.2,1.9,0.5,2.8
	c0.4,0.9,0.9,1.7,1.6,2.4c0.7,0.7,1.5,1.2,2.4,1.6c0.9,0.3,1.8,0.5,2.8,0.5c1,0,1.9-0.2,2.8-0.5c0.9-0.4,1.7-0.9,2.4-1.6
	c0.7-0.7,1.2-1.5,1.6-2.4c0.4-0.9,0.6-1.8,0.5-2.8c0-1-0.2-1.9-0.5-2.8l0,0C82.4,91.9,81.9,91.1,81.2,90.4L81.2,90.4z M13.1,15.4
	h5.6v5.7h-5.6c-1.1,0-2.1,0.5-2.9,1.2C9.5,23,9,24,9,25.1v74c0,1.1,0.5,2.1,1.2,2.9c0.7,0.7,1.8,1.2,2.9,1.2h33.4
	c0.4,2,1,3.9,1.7,5.7H13.1c-2.7,0-5.1-1.1-6.9-2.9c-1.8-1.8-2.9-4.2-2.9-6.9v-74c0-2.7,1.1-5.1,2.9-6.9S10.4,15.4,13.1,15.4z
	 M82.8,66.3V25.1c0-1.1-0.5-2.1-1.2-2.9c-0.8-0.8-1.8-1.2-2.9-1.2h-5.6v-5.7h5.6c2.7,0,5.1,1.1,6.9,2.9c1.8,1.8,2.9,4.2,2.9,6.9V68
	C86.7,67.2,84.8,66.7,82.8,66.3z M34.4,64.4c-1.7,0-3-1.4-3-3s1.4-3,3-3h33.5c1.7,0,3,1.4,3,3c0,1.7-1.4,3-3,3H34.4L34.4,64.4z
	 M24.3,58c1.9,0,3.4,1.5,3.4,3.4c0,1.9-1.5,3.4-3.4,3.4c-1.9,0-3.4-1.5-3.4-3.4C20.9,59.5,22.4,58,24.3,58L24.3,58z M24.3,76.5
	c1.9,0,3.4,1.5,3.4,3.4c0,1.9-1.5,3.4-3.4,3.4c-1.9,0-3.4-1.5-3.4-3.4C20.9,78,22.4,76.5,24.3,76.5z M34.4,82.9c-1.7,0-3-1.4-3-3
	c0-1.7,1.4-3,3-3h19c-1.6,1.9-2.9,3.9-4,6.1H34.4z M24.3,39.6c1.9,0,3.4,1.5,3.4,3.4c0,1.9-1.5,3.4-3.4,3.4c-1.9,0-3.4-1.5-3.4-3.4
	C20.9,41.1,22.4,39.6,24.3,39.6L24.3,39.6z M34.4,46c-1.7,0-3-1.4-3-3c0-1.7,1.4-3,3-3h33.5c1.7,0,3,1.4,3,3c0,1.7-1.4,3-3,3H34.4z
	 M45.7,6.2c2.9,0,5.2,2.3,5.2,5.2c0,2.9-2.3,5.2-5.2,5.2c-2.9,0-5.2-2.3-5.2-5.2C40.5,8.5,42.8,6.2,45.7,6.2z"/>
</svg>
