<?xml version="1.0" encoding="utf-8"?>
<!-- Generator: Adobe Illustrator 26.3.1, SVG Export Plug-In . SVG Version: 6.00 Build 0)  -->
<svg version="1.1" id="Layer_1" xmlns="http://www.w3.org/2000/svg" xmlns:xlink="http://www.w3.org/1999/xlink" x="0px" y="0px"
	 viewBox="0 0 104.8 122.9" style="enable-background:new 0 0 104.8 122.9;" xml:space="preserve">
<style type="text/css">
	.st0{fill:#333333;}
</style>
<g>
	<path class="st0" d="M39.9,0c11,0,21,4.5,28.2,11.7c7.2,7.2,11.7,17.2,11.7,28.2c0,3.8-0.5,7.5-1.5,11l-3.7-2.5
		c0.7-2.7,1-5.5,1-8.4c0-9.9-4-18.8-10.5-25.2C58.7,8.2,49.8,4.2,39.9,4.2s-18.8,4-25.2,10.5C8.2,21.1,4.2,30.1,4.2,39.9
		s4,18.8,10.5,25.2c4.8,4.8,10.9,8.2,17.8,9.7l0.3,4.4c-8.2-1.5-15.5-5.4-21.1-11.1C4.5,60.9,0,50.9,0,39.9s4.5-21,11.7-28.2
		C18.9,4.5,28.9,0,39.9,0L39.9,0z M81.8,122.5c-0.9,0.4-1.9,0.5-2.8,0.2c-1-0.3-1.8-0.9-2.4-1.8l-9.9-17.1l-9.4,10.6
		c-1.3,1.5-2.8,2.6-4.2,3.2c-1.1,0.4-2.2,0.6-3.2,0.4c-1.1-0.2-2.1-0.9-2.8-2c-0.6-0.9-0.9-2.1-1-3.6L40.8,44c0,0,0-0.1,0-0.2
		c0-0.4,0.1-0.8,0.2-1.2c0.2-0.4,0.5-0.8,0.9-1.1c0.2-0.1,0.4-0.2,0.6-0.3c0.4-0.1,0.8-0.2,1.2-0.1c0.4,0,0.8,0.2,1.1,0.3
		c0.1,0,0.2,0.1,0.3,0.2l56.5,38.7c1.2,0.9,2.1,1.8,2.6,2.7c0.6,1.2,0.7,2.3,0.3,3.4c-0.3,1-1,1.9-1.9,2.6c-1.2,0.9-2.9,1.7-4.9,2.1
		c0,0-0.1,0-0.1,0L83.9,94l9.8,17.1c0.5,0.9,0.6,2,0.4,2.9c-0.2,0.9-0.8,1.8-1.7,2.4c0,0-0.1,0.1-0.1,0.1l-10.2,5.9
		C82,122.4,81.9,122.5,81.8,122.5L81.8,122.5L81.8,122.5z M80,119.3c0.1,0,0.2,0,0.3,0c0,0,0.1,0,0.1-0.1l10.1-5.8
		c0.1-0.1,0.2-0.2,0.2-0.3c0-0.1,0-0.2,0-0.2L79.1,93.2h0C79,93,79,92.8,78.9,92.6c-0.2-1,0.4-1.9,1.4-2.1l16.2-2.9c0,0,0,0,0.1,0
		c1.4-0.3,2.6-0.8,3.4-1.4c0.4-0.3,0.7-0.6,0.7-0.9c0.1-0.2,0-0.4-0.1-0.7c-0.2-0.4-0.7-0.9-1.4-1.4L45,46l5.1,65.4
		c0.1,0.9,0.2,1.5,0.5,1.9c0.2,0.2,0.3,0.4,0.5,0.4c0.3,0.1,0.7,0,1.2-0.2c0.9-0.4,1.9-1.2,2.9-2.2l10.1-12.2l0,0
		c0.1-0.1,0.3-0.3,0.4-0.4c0.8-0.5,1.9-0.2,2.4,0.7l11.6,19.7C79.8,119.2,79.9,119.3,80,119.3L80,119.3L80,119.3z M80.4,119.2
		c0.2-0.1,0.5-0.2,0.8-0.2L80.4,119.2L80.4,119.2L80.4,119.2z M39.9,27.3c3.5,0,6.6,1.4,8.9,3.7c0.2,0.2,0.5,0.5,0.7,0.7
		c-0.1,0-0.2-0.1-0.4-0.1c-0.7-0.2-1.3-0.4-2.1-0.5c-0.2,0-0.5-0.1-0.7-0.1c-1-0.1-2.1-0.1-3.2,0c-0.2,0-0.3,0-0.5,0.1
		c-0.9-0.3-1.8-0.4-2.7-0.4c-2.5,0-4.9,1-6.5,2.7l0,0c-1.7,1.7-2.7,4-2.7,6.5c0,1.3,0.1,1.3-0.2,2.7c-0.1,0.7-0.2,1.4-0.2,2.3
		c0,0.6,0,1.1,0,1.7l0.1,1.6c-1.9-2.2-3.1-5.1-3.1-8.2c0-3.5,1.4-6.6,3.7-8.9l0,0C33.3,28.7,36.5,27.3,39.9,27.3L39.9,27.3z
		 M39.9,13.7c7.2,0,13.8,2.9,18.5,7.7c4.8,4.8,7.7,11.3,7.7,18.5c0,0.9,0,1.7-0.1,2.5l-3.8-2.6c0-6.1-2.5-11.6-6.5-15.6
		c-4-4-9.6-6.5-15.7-6.5s-11.7,2.5-15.7,6.5s-6.5,9.6-6.5,15.7s2.5,11.7,6.5,15.7c2,2,4.5,3.7,7.2,4.8l0.3,4.4
		c-3.9-1.3-7.5-3.5-10.3-6.4c-4.8-4.8-7.7-11.3-7.7-18.5s2.9-13.8,7.7-18.5C26.1,16.6,32.7,13.7,39.9,13.7L39.9,13.7z"/>
</g>
</svg>
