<?xml version="1.0" encoding="utf-8"?>
<!-- Generator: Adobe Illustrator 26.5.0, SVG Export Plug-In . SVG Version: 6.00 Build 0)  -->
<svg version="1.1" id="Layer_1" xmlns="http://www.w3.org/2000/svg" xmlns:xlink="http://www.w3.org/1999/xlink" x="0px" y="0px"
	 viewBox="0 0 104.8 122.9" style="enable-background:new 0 0 104.8 122.9;" xml:space="preserve">
<style type="text/css">
	.st0{fill-rule:evenodd;clip-rule:evenodd;fill:#333333;}
</style>
<path class="st0" d="M25.1,10.7h10.8c0.6-5.2,4.8-9.2,9.9-9.2c5.1,0,9.2,4,9.9,9.1l11,0.1c0.6,0,1.1,0.5,1.1,1.1v12.2
	c0,0.6-0.5,1.1-1.1,1.1H25.1c-0.6,0-1.1-0.5-1.1-1.1V11.8C24,11.2,24.5,10.7,25.1,10.7C25.1,10.7,25.1,10.7,25.1,10.7z M77.1,72.6
	c13.5,0,24.4,10.9,24.4,24.4c0,13.5-10.9,24.4-24.4,24.4c-13.5,0-24.4-10.9-24.4-24.4C52.7,83.5,63.7,72.6,77.1,72.6z M84.3,84.8
	c-0.3-0.2-0.7-0.3-1-0.2c-0.4,0.1-0.7,0.3-0.9,0.6l-1.2,1.7c-0.8-0.4-1.9-0.6-2.8-0.7L78,83.9c-0.1-0.4-0.3-0.7-0.6-0.9
	c-0.3-0.2-0.6-0.3-1-0.2l-2.8,0.5c-0.4,0.1-0.7,0.2-0.9,0.6c-0.2,0.3-0.3,0.7-0.2,1l0.4,2.1c-0.9,0.4-1.7,0.9-2.5,1.5l-1.9-1.3
	c-0.3-0.2-0.6-0.3-1-0.2c-0.4,0.1-0.7,0.3-0.9,0.6l-1.6,2.3c-0.2,0.3-0.3,0.7-0.2,1c0.1,0.4,0.3,0.7,0.6,0.9l1.7,1.2
	c-0.4,0.8-0.6,1.9-0.7,2.8L64,96.1c-0.4,0.1-0.7,0.3-0.9,0.6c-0.2,0.3-0.3,0.6-0.2,1l0.5,2.8c0.1,0.4,0.2,0.6,0.6,0.9
	c0.3,0.2,0.6,0.3,1,0.2l2.1-0.4c0.4,0.9,0.9,1.7,1.5,2.5l-1.3,1.9c-0.2,0.3-0.3,0.7-0.2,1c0.1,0.4,0.3,0.7,0.6,0.9l2.4,1.7
	c0.3,0.2,0.7,0.3,1,0.2c0.4-0.1,0.7-0.2,0.9-0.6l1.2-1.8c0.8,0.4,1.9,0.6,2.8,0.7l0.4,2.3c0.1,0.4,0.3,0.7,0.5,0.9
	c0.3,0.2,0.7,0.3,1,0.2l2.8-0.5c0.4-0.1,0.6-0.2,0.9-0.6c0.2-0.3,0.3-0.6,0.2-1l-0.4-2.1c0.9-0.4,1.7-0.9,2.5-1.5l1.9,1.3
	c0.3,0.2,0.6,0.3,1,0.2c0.4-0.1,0.7-0.3,0.9-0.6l1.7-2.4c0.2-0.3,0.3-0.7,0.2-1c-0.1-0.4-0.2-0.7-0.5-0.9l-1.8-1.2
	c0.4-0.8,0.6-1.9,0.7-2.8l2.3-0.4c0.4-0.1,0.7-0.3,0.9-0.6c0.2-0.3,0.3-0.6,0.2-1l-0.5-2.8c-0.1-0.4-0.2-0.6-0.6-0.9
	c-0.3-0.2-0.6-0.3-1-0.2l-2.1,0.4c-0.4-0.9-0.9-1.7-1.5-2.5l1.3-1.9c0.2-0.3,0.3-0.6,0.2-1c-0.1-0.4-0.3-0.7-0.6-0.9L84.3,84.8
	L84.3,84.8L84.3,84.8z M77.1,90.9c3.3,0,6.1,2.7,6.1,6.1c0,3.3-2.7,6.1-6.1,6.1c-3.3,0-6.1-2.7-6.1-6.1
	C71.1,93.7,73.8,90.9,77.1,90.9z M13.1,15.3h5.6V21h-5.6c-1.1,0-2.1,0.5-2.9,1.2C9.5,23,9,24,9,25.1v74c0,1.1,0.5,2.1,1.2,2.9
	c0.7,0.7,1.8,1.2,2.9,1.2h33.4c0.4,2,1,3.9,1.7,5.7H13.1c-2.7,0-5.1-1.1-6.9-2.9c-1.8-1.8-2.9-4.2-2.9-6.9v-74
	c0-2.7,1.1-5.1,2.9-6.9C7.9,16.4,10.4,15.3,13.1,15.3z M82.8,66.3V25.1c0-1.1-0.5-2.1-1.2-2.9c-0.8-0.8-1.8-1.2-2.9-1.2h-5.6v-5.7
	h5.6c2.7,0,5.1,1.1,6.9,2.9c1.8,1.8,2.9,4.2,2.9,6.9v42.8C86.7,67.2,84.8,66.6,82.8,66.3z M34.4,64.4c-1.7,0-3-1.4-3-3s1.4-3,3-3
	h33.5c1.7,0,3,1.4,3,3c0,1.7-1.4,3-3,3H34.4L34.4,64.4z M24.3,58c1.9,0,3.4,1.5,3.4,3.4c0,1.9-1.5,3.4-3.4,3.4
	c-1.9,0-3.4-1.5-3.4-3.4C20.9,59.5,22.4,58,24.3,58L24.3,58z M24.3,76.4c1.9,0,3.4,1.5,3.4,3.4c0,1.9-1.5,3.4-3.4,3.4
	c-1.9,0-3.4-1.5-3.4-3.4C20.9,77.9,22.4,76.4,24.3,76.4z M34.4,82.8c-1.7,0-3-1.4-3-3c0-1.7,1.4-3,3-3h19c-1.6,1.9-2.9,3.9-4,6.1
	H34.4z M24.3,39.5c1.9,0,3.4,1.5,3.4,3.4c0,1.9-1.5,3.4-3.4,3.4c-1.9,0-3.4-1.5-3.4-3.4C20.9,41.1,22.4,39.5,24.3,39.5L24.3,39.5z
	 M34.4,46c-1.7,0-3-1.4-3-3c0-1.7,1.4-3,3-3h33.5c1.7,0,3,1.4,3,3c0,1.7-1.4,3-3,3H34.4z M45.7,6.1c2.9,0,5.2,2.3,5.2,5.2
	c0,2.9-2.3,5.2-5.2,5.2c-2.9,0-5.2-2.3-5.2-5.2C40.5,8.5,42.8,6.1,45.7,6.1z"/>
</svg>
