<?xml version="1.0" encoding="utf-8"?>
<!-- Generator: Adobe Illustrator 26.3.1, SVG Export Plug-In . SVG Version: 6.00 Build 0)  -->
<svg version="1.1"
	 id="Layer_1" image-rendering="optimizeQuality" shape-rendering="geometricPrecision" text-rendering="geometricPrecision"
	 xmlns="http://www.w3.org/2000/svg" xmlns:xlink="http://www.w3.org/1999/xlink" x="0px" y="0px" viewBox="0 0 512 425.8"
	 style="enable-background:new 0 0 512 425.8;" xml:space="preserve">
<style type="text/css">
	.st0{fill:#1C2F62;}
</style>
<path class="st0" d="M105.8,362.1l60.8-58.3c2.1,10.5,5.1,20.9,8.9,31l-73.3,70.3c-2.7,3.1-6.6,4.8-10.7,4.8
	c-7.9,0-14.3-6.4-14.3-14.3v-69.2H34.7c-9,0-17.2-3.5-23.4-9.2l-1.1-1C3.9,309.9,0,301.2,0,291.7V34.7c0-9.5,4-18.2,10.2-24.5
	C16.5,4,25.2,0,34.7,0h325.6c9.5,0,18.2,3.9,24.5,10.2c6.2,6.2,10.2,14.9,10.2,24.5v46.7c-9.4-2.1-19-3.5-28.6-4.2V34.7
	c0-1.6-0.7-3.2-1.8-4.3c-1.1-1.1-2.7-1.8-4.3-1.8H34.7c-1.6,0-3.1,0.7-4.2,1.9c-1.1,1.1-1.9,2.7-1.9,4.2v256.9
	c0,1.6,0.7,3.2,1.8,4.3l0.4,0.4c1,0.9,2.4,1.4,3.9,1.4h56.7c7.9,0,14.3,6.4,14.3,14.3V362.1L105.8,362.1z M402.1,306
	c4.8,3.4,8,5.5,9.5,6.3c2.2,1.2,5.2,2.7,8.9,4.4l-10.7,21.7c-5.4-2.6-10.8-5.7-16.1-9.4c-5.3-3.6-9-6.3-11.1-8.1
	c-8.5,3.7-19.3,5.6-32.2,5.6c-19.1,0-34.1-5-45.1-14.9c-13-11.8-19.5-28.2-19.5-49.5c0-20.7,5.7-36.7,17.1-48.1
	c11.4-11.4,27.3-17.1,47.7-17.1c20.8,0,36.9,5.6,48.2,16.8c11.3,11.2,17,27.2,17,48C415.8,280.1,411.2,294.9,402.1,306L402.1,306z
	 M372.4,286.1c3.1-5.5,4.6-13.8,4.6-24.8c0-12.6-2.4-21.7-7.1-27.1c-4.7-5.4-11.2-8.1-19.5-8.1c-7.8,0-14,2.8-18.8,8.3
	c-4.8,5.5-7.2,14.2-7.2,25.9c0,13.7,2.3,23.3,7,28.8c4.7,5.5,11.1,8.3,19.3,8.3c2.6,0,5.1-0.3,7.5-0.8c-3.3-3.2-8.4-6.1-15.5-8.9
	l6.1-13.9c3.5,0.6,6.1,1.4,8,2.3c1.9,0.9,5.7,3.3,11.2,7.2C369.4,284.2,370.8,285.1,372.4,286.1L372.4,286.1z M465.4,154.5
	c31,31.1,46.6,71.8,46.6,112.4c0,40-15.1,80-45.1,110.8l-1.4,1.5c-31.1,31-71.8,46.5-112.4,46.5c-40.7,0-81.3-15.5-112.4-46.5
	c-31-31.1-46.5-71.8-46.5-112.4c0-40.6,15.5-81.3,46.5-112.3c31.1-31,71.8-46.6,112.4-46.6c40,0,80,15.1,110.8,45.1L465.4,154.5
	L465.4,154.5z M447.8,172.2c-52.3-52.3-137-52.3-189.3,0c-52.3,52.3-52.3,137,0,189.3c52.3,52.3,137,52.3,189.3,0
	C500,309.2,500,224.5,447.8,172.2z M98.3,128.8c-7.9,0-14.3-6.4-14.3-14.3c0-7.9,6.4-14.3,14.3-14.3h163.4
	c-14.3,7.8-27.5,17.5-39.3,28.6H98.3z M98.3,213.5c-7.9,0-14.3-6.4-14.3-14.3c0-7.9,6.4-14.3,14.3-14.3h83.3
	c-4.4,9.3-8.1,18.9-10.9,28.6L98.3,213.5L98.3,213.5z"/>
</svg>
