<?xml version="1.0" encoding="utf-8"?>
<!-- Generator: Adobe Illustrator 26.3.1, SVG Export Plug-In . SVG Version: 6.00 Build 0)  -->
<svg version="1.1" id="Layer_1" xmlns="http://www.w3.org/2000/svg" xmlns:xlink="http://www.w3.org/1999/xlink" x="0px" y="0px"
	 viewBox="0 0 111.9 122.9" style="enable-background:new 0 0 111.9 122.9;" xml:space="preserve">
<style type="text/css">
	.st0{fill-rule:evenodd;clip-rule:evenodd;fill:#1C2F62;}
</style>
<path class="st0" d="M56.8,113.6V75.1c0-5.1,4.2-9.3,9.3-9.3h36.5c5.1,0,9.3,4.2,9.3,9.3v38.5c0,5.1-4.2,9.3-9.3,9.3H66.1
	C60.9,122.9,56.8,118.7,56.8,113.6z M59.5,11.5l19.6,18.3H59.5C59.5,29.8,59.5,11.5,59.5,11.5z M20.7,69.4c-1.2,0.1-2.1,1-2,2.2
	c-0.1,1.1,0.8,2.1,1.9,2.2c0,0,0,0,0.1,0h24.6v-4.4H20.7z M20.7,85.2c-1.2,0.1-2.1,1-2,2.2c-0.1,1.1,0.8,2.1,1.9,2.2c0,0,0,0,0.1,0
	h24.6v-4.4H20.7z M20.7,37.7c-1.2,0.1-2.1,1-2,2.2c-0.1,1.2,0.8,2.1,2,2.2c0,0,0,0,0,0h22.7c1.2-0.1,2.1-1,2-2.2
	c0.1-1.2-0.8-2.1-2-2.2c0,0,0,0,0,0H20.7z M20.7,21.9c-1.2,0.1-2.1,1-2,2.2c-0.1,1.1,0.8,2.1,1.9,2.2c0,0,0,0,0.1,0h12.5
	c1.2-0.1,2.1-1,2-2.2c0.1-1.2-0.8-2.1-2-2.2c0,0,0,0,0,0L20.7,21.9z M20.7,53.5c-1.2,0.1-2.1,1-2,2.2c-0.1,1.2,0.8,2.1,2,2.2
	c0,0,0,0,0,0h38.4c1.2-0.1,2-1.1,2-2.2c0.1-1.2-0.8-2.1-2-2.2c0,0,0,0,0,0H20.7z M90,32.5c0-1.5-1-2.7-2.4-3.1L58.7,1.2
	C58.1,0.4,57.2,0,56.2,0H5.9C2.6,0,0,2.6,0,5.8c0,0,0,0,0,0v100.4c0,1.6,0.6,3.1,1.7,4.2c1.1,1.1,2.6,1.7,4.1,1.7h39.5v-6.6H6.6v-99
	h46.4v26.5c0,1.8,1.5,3.3,3.3,3.3c0,0,0,0,0,0h27.2v21.4H90V32.5z M75.9,89.7l4.8,4.5L92,82.6c1-1,1.7-1.8,2.9-0.6l4,4.1
	c1.3,1.3,1.3,2.1,0,3.3L83,105.2c-2.6,2.6-2.2,2.8-4.9,0.1l-9-9c-0.5-0.4-0.5-1.2-0.1-1.7c0.1-0.1,0.1-0.1,0.2-0.2l4.7-4.9
	C74.7,88.9,75.2,88.9,75.9,89.7L75.9,89.7z"/>
</svg>
